{
	"asset":{
		"generator":"Khronos glTF Blender I/O v4.0.44",
		"version":"2.0"
	},
	"scene":0,
	"scenes":[
		{
			"name":"Scene",
			"nodes":[
				0
			]
		}
	],
	"nodes":[
		{
			"mesh":0,
			"name":"Plane",
			"scale":[
				-1,
				-1,
				-1
			]
		}
	],
	"materials":[
		{
			"doubleSided":true,
			"name":"Material",
			"pbrMetallicRoughness":{
				"baseColorTexture":{
					"index":0
				},
				"metallicFactor":0,
				"roughnessFactor":0.5
			}
		}
	],
	"meshes":[
		{
			"name":"Plane",
			"primitives":[
				{
					"attributes":{
						"POSITION":0,
						"NORMAL":1,
						"TEXCOORD_0":2
					},
					"indices":3,
					"material":0
				}
			]
		}
	],
	"textures":[
		{
			"sampler":0,
			"source":0
		}
	],
	"images":[
		{
			"mimeType":"image/jpeg",
			"name":"Text",
			"uri":"Text.jpg"
		}
	],
	"accessors":[
		{
			"bufferView":0,
			"componentType":5126,
			"count":2968,
			"max":[
				107.74055480957031,
				59.37701416015625,
				25.90651512145996
			],
			"min":[
				-69.39266967773438,
				0,
				-63.73107147216797
			],
			"type":"VEC3"
		},
		{
			"bufferView":1,
			"componentType":5126,
			"count":2968,
			"type":"VEC3"
		},
		{
			"bufferView":2,
			"componentType":5126,
			"count":2968,
			"type":"VEC2"
		},
		{
			"bufferView":3,
			"componentType":5123,
			"count":4776,
			"type":"SCALAR"
		}
	],
	"bufferViews":[
		{
			"buffer":0,
			"byteLength":35616,
			"byteOffset":0,
			"target":34962
		},
		{
			"buffer":0,
			"byteLength":35616,
			"byteOffset":35616,
			"target":34962
		},
		{
			"buffer":0,
			"byteLength":23744,
			"byteOffset":71232,
			"target":34962
		},
		{
			"buffer":0,
			"byteLength":9552,
			"byteOffset":94976,
			"target":34963
		}
	],
	"samplers":[
		{
			"magFilter":9729,
			"minFilter":9987
		}
	],
	"buffers":[
		{
			"byteLength":104528,
			"uri":"NivelGL.bin"
		}
	]
}
